<svg xmlns="http://www.w3.org/2000/svg" xmlns:xlink="http://www.w3.org/1999/xlink" width="800" zoomAndPan="magnify" viewBox="0 0 600 1499.999933" height="2000" preserveAspectRatio="xMidYMid meet" version="1.0"><defs><clipPath id="d883b8de54"><path d="M 3 571 L 593 571 L 593 1237.945312 L 3 1237.945312 Z M 3 571 " clip-rule="nonzero"/></clipPath><clipPath id="c3144e0449"><path d="M 77 679 L 299 679 L 299 1237.945312 L 77 1237.945312 Z M 77 679 " clip-rule="nonzero"/></clipPath><clipPath id="9cdc7ed6de"><path d="M 260 580 L 325 580 L 325 1237.945312 L 260 1237.945312 Z M 260 580 " clip-rule="nonzero"/></clipPath><clipPath id="f6a6a7c004"><path d="M 0.144531 641 L 149 641 L 149 1222.519531 L 0.144531 1222.519531 Z M 0.144531 641 " clip-rule="nonzero"/></clipPath></defs><path fill="#bf8c6a" d="M 336.914062 315.691406 C 325.789062 305.679688 310.738281 302.5625 296.152344 295.445312 C 282.632812 288.84375 269.761719 277.921875 254.726562 276.613281 C 182.011719 270.292969 146.289062 322.691406 146.289062 322.691406 C 146.289062 322.691406 133.136719 344.753906 118.023438 379.582031 C 105.867188 407.589844 92.4375 443.851562 83.550781 483.527344 C 79.308594 502.507812 86.222656 521.890625 89.296875 544.625 C 91.246094 558.988281 90.628906 577.917969 87.941406 588.726562 C 82.886719 608.960938 61.574219 636.597656 58.492188 651.171875 C 49.402344 694.199219 81.230469 694.902344 81.230469 694.902344 L 426.882812 662.308594 C 426.882812 662.308594 416.746094 642.246094 416.273438 622.445312 C 415.84375 604.222656 425.203125 587.175781 422.351562 564.539062 C 421.425781 557.179688 419.316406 546.980469 417.289062 540.472656 C 410.953125 520.179688 401.105469 505.882812 395.207031 480.882812 C 388.308594 451.664062 387.042969 417.511719 379.140625 389.367188 C 369.878906 356.324219 353.4375 330.5625 336.914062 315.691406 " fill-opacity="1" fill-rule="evenodd"/><g clip-path="url(#d883b8de54)"><path fill="#61a48d" d="M 570.941406 808.214844 L 579.398438 797.796875 C 579.398438 797.796875 571.566406 741.511719 567.566406 718.28125 C 566.097656 709.761719 545.355469 709.882812 545.355469 709.882812 L 457.34375 673.863281 C 457.34375 673.863281 406.242188 654.84375 376.679688 641.394531 C 347.125 627.949219 339.105469 620.078125 339.105469 620.078125 C 339.105469 620.078125 336.648438 609.84375 328.792969 597.699219 C 320.9375 585.550781 307.695312 571.476562 307.695312 571.476562 L 188.414062 599.710938 L 136.753906 654.117188 C 136.753906 654.117188 88.542969 686.953125 74.128906 701.476562 C 56.625 719.089844 48.800781 734.207031 43.550781 772.246094 C 37.320312 817.433594 34.632812 882.109375 30.21875 946.460938 C 21.558594 1072.964844 3.25 1219.46875 3.25 1219.46875 C 3.25 1219.46875 98.191406 1237.132812 212.339844 1237.132812 C 326.496094 1237.132812 459.863281 1219.46875 459.863281 1219.46875 C 459.863281 1219.46875 452.152344 1181.601562 442.640625 1144.132812 C 436.523438 1120.042969 428.203125 1099.609375 425.566406 1077.957031 C 423.40625 1060.28125 429.144531 1051.058594 430.101562 1039.480469 C 432.132812 1014.828125 432.863281 998.203125 432.863281 998.203125 C 432.863281 998.203125 442.203125 1028.121094 455.074219 1053.816406 C 465.519531 1074.660156 478.1875 1091.644531 490.949219 1096.148438 C 502.394531 1100.179688 524.667969 1104.691406 535.867188 1098.921875 C 564.808594 1084.015625 579.40625 1038.164062 584.828125 1018.105469 C 588.179688 1005.699219 592.148438 986.265625 592.429688 973.78125 C 592.984375 949.039062 586.53125 931.539062 584.648438 909.621094 C 582.003906 878.78125 583.253906 856.753906 580.386719 838.570312 C 577.800781 822.292969 570.941406 808.214844 570.941406 808.214844 " fill-opacity="1" fill-rule="evenodd"/></g><g clip-path="url(#c3144e0449)"><path fill="#efefef" d="M 298.605469 683.414062 L 169.410156 679.753906 C 169.410156 679.753906 141.964844 740.019531 121.796875 808.5625 C 101.625 877.09375 88.71875 953.894531 88.71875 953.894531 L 93.980469 1043.789062 C 93.980469 1043.789062 88.574219 1097.023438 84.363281 1143.710938 C 80.160156 1190.398438 77.148438 1230.546875 77.148438 1230.546875 C 111.65625 1234.472656 156.058594 1237.945312 205.328125 1237.945312 C 230.695312 1237.945312 257.347656 1237.027344 283.46875 1235.59375 C 283.46875 1235.59375 281.992188 1168.984375 276.457031 1094.847656 C 270.785156 1019.105469 261.0625 935.09375 262.996094 865.328125 C 264.34375 816.90625 277.328125 765.617188 286.015625 731.929688 C 294.441406 699.226562 298.605469 683.414062 298.605469 683.414062 " fill-opacity="1" fill-rule="evenodd"/></g><path fill="#ffddc0" d="M 302.355469 384.722656 C 293.800781 369.84375 277.691406 371.367188 264.277344 367.109375 C 250.992188 362.890625 240.417969 352.78125 229.023438 361.609375 C 219.722656 368.8125 214.652344 385.488281 208.640625 399.734375 C 204.160156 410.355469 198.820312 418.8125 192.5625 425.328125 C 176.625 441.910156 150.0625 452.28125 150.0625 452.28125 C 150.0625 452.28125 151.054688 463.203125 151.636719 479.429688 C 152.199219 495.390625 152.296875 516.527344 156.394531 532.421875 C 162.796875 557.242188 184.519531 580.082031 184.519531 580.082031 L 193.894531 627.144531 L 169.792969 678.148438 C 169.792969 678.148438 167.367188 698.386719 173.386719 722.792969 C 178.273438 742.621094 189.753906 767.476562 204.402344 767.976562 C 220.746094 768.515625 248.769531 743.488281 268.722656 721.988281 C 288.679688 700.484375 300.558594 682.507812 300.558594 682.507812 L 317.429688 627.542969 C 317.429688 627.542969 310.421875 610.867188 307.929688 593.300781 C 305.4375 575.742188 307.449219 557.300781 307.449219 557.300781 C 307.449219 557.300781 312.945312 549.589844 317.382812 538.117188 C 321.8125 526.636719 325.179688 511.398438 325.179688 511.398438 C 325.179688 511.398438 333.726562 509.824219 340.074219 505.003906 C 346.433594 500.183594 350.589844 492.121094 350.589844 492.121094 C 350.589844 492.121094 340.609375 484.414062 334.109375 475.453125 C 324.679688 462.4375 317.480469 445.976562 316.285156 440.078125 C 312.269531 420.207031 309.84375 397.707031 302.355469 384.722656 " fill-opacity="1" fill-rule="evenodd"/><path fill="#ffddc0" d="M 525.480469 557.90625 C 525.480469 557.90625 520.601562 554.9375 515.621094 553.453125 C 501.945312 549.371094 476.125 543.515625 461.378906 542.078125 C 443.226562 540.300781 444.734375 553.625 444.734375 553.625 C 444.734375 553.625 437 555.597656 433.066406 559.628906 C 429.128906 563.667969 428.984375 569.753906 428.984375 569.753906 C 428.984375 569.753906 423.496094 570.648438 419.75 576.40625 C 416 582.167969 414.019531 592.945312 414.019531 592.945312 C 414.019531 592.945312 405.171875 600.359375 412.460938 612.757812 C 415.351562 617.667969 417.679688 625.277344 423.539062 629.15625 C 430.175781 633.539062 441.59375 632.710938 441.59375 632.710938 C 441.59375 632.710938 450.96875 662.195312 462.589844 687.902344 C 469.332031 702.816406 477.105469 720.566406 477.617188 727.082031 C 479.136719 746.523438 477.058594 772.78125 477.058594 772.78125 C 477.058594 772.78125 497.671875 774.242188 515.289062 766.445312 C 532.90625 758.65625 547.515625 741.625 547.515625 741.625 C 547.515625 741.625 546.546875 724.777344 543.585938 706.507812 C 540.28125 686.148438 534.863281 663.015625 532.851562 638.382812 C 531.082031 616.613281 531.582031 595.335938 530.859375 578.429688 C 530.132812 561.511719 525.480469 557.90625 525.480469 557.90625 " fill-opacity="1" fill-rule="evenodd"/><path fill="#efefef" d="M 233.527344 531.8125 C 249.808594 533.121094 266.070312 531.660156 266.070312 531.660156 C 266.070312 531.660156 256.210938 560 230.988281 560.335938 C 205.3125 560.675781 200.960938 526.417969 200.960938 526.417969 C 200.960938 526.417969 217.242188 530.5 233.527344 531.8125 " fill-opacity="1" fill-rule="evenodd"/><path fill="#000000" d="M 262.328125 534.320312 C 258.839844 541.566406 249.042969 557.707031 230.957031 557.949219 C 230.84375 557.949219 230.726562 557.949219 230.613281 557.949219 C 212.007812 557.949219 205.742188 537.84375 203.957031 529.566406 C 209.675781 530.847656 221.421875 533.226562 233.339844 534.191406 C 244.980469 535.132812 256.476562 534.679688 262.328125 534.320312 Z M 230.605469 562.726562 C 230.738281 562.726562 230.875 562.726562 231.019531 562.726562 C 257.613281 562.371094 267.902344 533.664062 268.320312 532.445312 C 268.59375 531.683594 268.449219 530.832031 267.953125 530.191406 C 267.449219 529.550781 266.664062 529.207031 265.851562 529.289062 C 265.695312 529.304688 249.589844 530.710938 233.722656 529.429688 C 217.839844 528.15625 201.707031 524.144531 201.539062 524.105469 C 200.785156 523.910156 199.964844 524.105469 199.378906 524.632812 C 198.789062 525.152344 198.496094 525.9375 198.59375 526.71875 C 198.640625 527.082031 203.484375 562.726562 230.605469 562.726562 " fill-opacity="1" fill-rule="nonzero"/><path fill="#000000" d="M 231.574219 604.386719 C 240.589844 604.386719 257.679688 601.253906 283.671875 584.101562 C 303.863281 570.777344 311.003906 556.503906 314.84375 548.835938 C 321.734375 535.074219 326.359375 516.933594 330.320312 499.375 C 330.617188 498.09375 329.808594 496.816406 328.523438 496.519531 C 327.25 496.234375 325.960938 497.039062 325.667969 498.328125 C 321.765625 515.585938 317.238281 533.394531 310.574219 546.695312 C 306.9375 553.964844 300.164062 567.492188 281.035156 580.117188 C 249.433594 600.976562 231.914062 600.074219 227.289062 599.296875 C 226.011719 599.085938 224.757812 599.953125 224.542969 601.253906 C 224.324219 602.558594 225.195312 603.785156 226.5 604.003906 C 227.742188 604.214844 229.429688 604.386719 231.574219 604.386719 " fill-opacity="1" fill-rule="nonzero"/><path fill="#000000" d="M 226.898438 604.035156 C 228.15625 604.035156 229.210938 603.046875 229.277344 601.765625 C 229.339844 600.457031 228.328125 599.335938 227.011719 599.265625 C 226.761719 599.25 209.160156 598.074219 190.605469 581.074219 C 175.105469 566.867188 164.777344 548.894531 160.660156 537.816406 C 156.402344 526.410156 155.402344 509.832031 154.460938 487.648438 C 154.308594 484.304688 154.121094 480.769531 153.917969 477.054688 C 153.527344 469.914062 153.082031 461.816406 152.902344 453.132812 C 152.878906 451.828125 151.816406 450.789062 150.519531 450.789062 C 150.507812 450.789062 150.492188 450.789062 150.46875 450.789062 C 149.148438 450.820312 148.109375 451.90625 148.132812 453.230469 C 148.3125 462 148.757812 470.132812 149.148438 477.3125 C 149.347656 481.019531 149.550781 484.527344 149.683594 487.851562 C 150.65625 510.480469 151.6875 527.417969 156.183594 539.480469 C 160.492188 551.058594 171.253906 569.820312 187.371094 584.59375 C 207.332031 602.867188 225.988281 603.996094 226.769531 604.035156 C 226.808594 604.035156 226.851562 604.035156 226.898438 604.035156 " fill-opacity="1" fill-rule="nonzero"/><path fill="#000000" d="M 327.046875 513.644531 C 327.144531 513.644531 327.25 513.636719 327.355469 513.621094 C 334.199219 512.738281 344.707031 507.640625 351.757812 496.175781 C 352.449219 495.058594 352.101562 493.582031 350.972656 492.890625 C 349.851562 492.203125 348.382812 492.558594 347.691406 493.671875 C 341.921875 503.058594 333.011719 508.074219 326.746094 508.890625 C 325.433594 509.054688 324.515625 510.253906 324.679688 511.554688 C 324.839844 512.761719 325.863281 513.644531 327.046875 513.644531 " fill-opacity="1" fill-rule="nonzero"/><path fill="#000000" d="M 334.132812 486.757812 C 334.878906 486.757812 335.609375 486.410156 336.078125 485.765625 L 338.863281 481.863281 C 339.632812 480.792969 339.382812 479.300781 338.304688 478.53125 C 337.234375 477.773438 335.746094 478.019531 334.984375 479.089844 L 332.191406 482.976562 C 331.429688 484.054688 331.679688 485.546875 332.746094 486.3125 C 333.167969 486.609375 333.652344 486.757812 334.132812 486.757812 " fill-opacity="1" fill-rule="nonzero"/><path fill="#000000" d="M 232.824219 513.679688 C 233.375 513.679688 233.941406 513.484375 234.386719 513.101562 C 235.378906 512.234375 235.5 510.734375 234.632812 509.734375 C 230.964844 505.484375 229.195312 502.269531 229.363281 500.167969 C 229.488281 498.488281 230.941406 497.175781 233.308594 495.179688 C 236.175781 492.753906 239.738281 489.726562 241.074219 484.316406 C 243.90625 472.695312 236.878906 457.351562 236.578125 456.703125 C 236.019531 455.503906 234.601562 454.992188 233.40625 455.550781 C 232.207031 456.101562 231.6875 457.515625 232.246094 458.714844 C 232.3125 458.859375 238.867188 473.199219 236.425781 483.179688 C 235.476562 487.089844 232.8125 489.351562 230.21875 491.535156 C 227.597656 493.75 224.894531 496.039062 224.59375 499.789062 C 224.316406 503.351562 226.296875 507.382812 231.019531 512.851562 C 231.492188 513.402344 232.15625 513.679688 232.824219 513.679688 " fill-opacity="1" fill-rule="nonzero"/><path fill="#000000" d="M 292.265625 436.238281 C 293.039062 436.238281 293.800781 435.859375 294.261719 435.167969 C 294.984375 434.066406 294.691406 432.589844 293.597656 431.867188 C 293.039062 431.5 279.808594 422.917969 262.605469 431.582031 C 261.421875 432.175781 260.949219 433.617188 261.542969 434.789062 C 262.132812 435.964844 263.570312 436.441406 264.746094 435.84375 C 279.394531 428.476562 290.496094 435.542969 290.960938 435.84375 C 291.359375 436.109375 291.820312 436.238281 292.265625 436.238281 " fill-opacity="1" fill-rule="nonzero"/><path fill="#000000" d="M 210.195312 440.914062 C 210.976562 440.914062 211.753906 440.523438 212.210938 439.808594 C 212.914062 438.691406 212.582031 437.214844 211.457031 436.507812 C 195.183594 426.21875 181.175781 433.472656 180.585938 433.78125 C 179.417969 434.40625 178.984375 435.851562 179.609375 437.019531 C 180.210938 438.179688 181.664062 438.617188 182.824219 438 C 183.359375 437.730469 195.070312 431.800781 208.914062 440.546875 C 209.3125 440.792969 209.75 440.914062 210.195312 440.914062 " fill-opacity="1" fill-rule="nonzero"/><path fill="#000000" d="M 271.5 346.9375 C 272.644531 346.9375 273.660156 346.101562 273.851562 344.925781 L 274.105469 343.238281 C 275.0625 336.789062 275.972656 330.695312 286.488281 319.15625 C 287.371094 318.183594 287.300781 316.671875 286.324219 315.78125 C 285.351562 314.902344 283.84375 314.96875 282.957031 315.941406 C 271.46875 328.550781 270.410156 335.660156 269.382812 342.53125 L 269.136719 344.179688 C 268.933594 345.484375 269.820312 346.703125 271.117188 346.914062 C 271.246094 346.929688 271.371094 346.9375 271.5 346.9375 " fill-opacity="1" fill-rule="nonzero"/><path fill="#000000" d="M 361.886719 502.050781 C 362.753906 502.050781 363.582031 501.582031 364.003906 500.769531 C 364.621094 499.601562 364.160156 498.15625 362.992188 497.546875 C 353.707031 492.695312 344.925781 485.457031 337.613281 476.605469 C 326.269531 462.863281 318.964844 445.886719 316.488281 427.492188 C 312.5625 398.332031 304.519531 365.210938 276.902344 367.886719 C 275.582031 368.015625 274.625 369.179688 274.753906 370.492188 C 274.882812 371.804688 276.066406 372.75 277.359375 372.640625 C 295.78125 370.847656 306.347656 387.960938 311.757812 428.132812 C 314.355469 447.40625 322.023438 465.214844 333.9375 479.648438 C 341.648438 488.980469 350.9375 496.632812 360.789062 501.777344 C 361.140625 501.960938 361.519531 502.050781 361.886719 502.050781 " fill-opacity="1" fill-rule="nonzero"/><path fill="#000000" d="M 387.523438 428.523438 C 387.628906 428.523438 387.726562 428.523438 387.832031 428.507812 C 389.136719 428.34375 390.0625 427.144531 389.898438 425.84375 C 382.613281 368.179688 354.46875 306.96875 308.007812 300.199219 C 306.703125 300.015625 305.492188 300.914062 305.300781 302.214844 C 305.113281 303.519531 306.019531 304.730469 307.320312 304.921875 C 351.296875 311.339844 378.109375 370.574219 385.167969 426.4375 C 385.316406 427.640625 386.34375 428.523438 387.523438 428.523438 " fill-opacity="1" fill-rule="nonzero"/><path fill="#000000" d="M 57.710938 693.621094 C 57.949219 693.621094 58.191406 693.582031 58.441406 693.5 C 59.699219 693.09375 60.382812 691.753906 59.976562 690.5 C 50.71875 661.75 65.453125 637.464844 77.300781 617.941406 C 83.082031 608.417969 88.078125 600.183594 89.863281 592.5625 C 96.632812 563.703125 93.339844 548.917969 89.871094 533.273438 C 88.152344 525.566406 86.382812 517.589844 85.644531 507.414062 C 83.585938 479.292969 93.851562 451.574219 105.746094 419.46875 C 106.914062 416.3125 108.109375 413.097656 109.308594 409.828125 C 110.300781 407.117188 111.304688 404.351562 112.328125 401.535156 C 126.253906 363.15625 143.59375 315.398438 180.925781 293.675781 C 204.816406 279.769531 263.367188 267.664062 285.464844 295.058594 C 286.292969 296.085938 287.792969 296.242188 288.816406 295.414062 C 289.839844 294.59375 290.003906 293.085938 289.175781 292.0625 C 265.074219 262.164062 204.335938 274.535156 178.53125 289.546875 C 139.691406 312.136719 122.027344 360.804688 107.839844 399.90625 C 106.824219 402.714844 105.8125 405.480469 104.820312 408.191406 C 103.628906 411.453125 102.4375 414.65625 101.273438 417.8125 C 89.183594 450.429688 78.753906 478.609375 80.875 507.757812 C 81.652344 518.289062 83.453125 526.433594 85.207031 534.304688 C 88.710938 550.0625 91.730469 563.675781 85.214844 591.476562 C 83.601562 598.355469 78.789062 606.285156 73.222656 615.46875 C 60.871094 635.816406 45.507812 661.140625 55.433594 691.957031 C 55.757812 692.972656 56.699219 693.621094 57.710938 693.621094 " fill-opacity="1" fill-rule="nonzero"/><path fill="#000000" d="M 422.589844 574.605469 C 423.839844 574.605469 424.894531 573.632812 424.972656 572.359375 C 426.109375 553.808594 417.574219 533.84375 411.058594 520.445312 C 403.859375 505.65625 394.90625 487.253906 391.351562 446.738281 C 391.230469 445.425781 390.078125 444.46875 388.757812 444.566406 C 387.449219 444.679688 386.476562 445.839844 386.597656 447.152344 C 390.226562 488.550781 399.402344 507.390625 406.765625 522.539062 C 413.050781 535.449219 421.28125 554.636719 420.203125 572.074219 C 420.128906 573.382812 421.128906 574.515625 422.441406 574.597656 C 422.492188 574.605469 422.539062 574.605469 422.589844 574.605469 " fill-opacity="1" fill-rule="nonzero"/><path fill="#000000" d="M 428.21875 664.84375 C 428.707031 664.84375 429.203125 664.695312 429.625 664.378906 C 430.6875 663.601562 430.921875 662.105469 430.136719 661.042969 C 429.324219 659.933594 428.570312 658.835938 427.894531 657.742188 L 427.394531 656.964844 C 423.976562 651.519531 416.867188 640.199219 417.265625 618.925781 C 417.289062 617.609375 416.234375 616.523438 414.917969 616.5 C 413.597656 616.476562 412.515625 617.527344 412.492188 618.84375 C 412.070312 641.539062 419.699219 653.667969 423.359375 659.496094 L 423.839844 660.265625 C 424.578125 661.464844 425.40625 662.660156 426.289062 663.867188 C 426.757812 664.507812 427.488281 664.84375 428.21875 664.84375 " fill-opacity="1" fill-rule="nonzero"/><path fill="#000000" d="M 316.449219 629.539062 C 316.710938 629.539062 316.976562 629.496094 317.226562 629.40625 C 318.476562 628.984375 319.136719 627.621094 318.707031 626.375 C 305.582031 588.1875 310.476562 557.988281 310.527344 557.679688 C 310.746094 556.382812 309.875 555.148438 308.570312 554.929688 C 307.269531 554.710938 306.046875 555.585938 305.820312 556.878906 C 305.601562 558.152344 300.648438 588.507812 314.195312 627.929688 C 314.535156 628.914062 315.460938 629.539062 316.449219 629.539062 " fill-opacity="1" fill-rule="nonzero"/><path fill="#000000" d="M 198.519531 652.304688 C 198.632812 652.304688 198.761719 652.304688 198.882812 652.28125 C 200.183594 652.085938 201.082031 650.871094 200.882812 649.570312 C 196.546875 620.71875 187.042969 579.085938 186.945312 578.671875 C 186.648438 577.390625 185.382812 576.601562 184.089844 576.878906 C 182.800781 577.171875 181.996094 578.453125 182.289062 579.734375 C 182.386719 580.15625 191.855469 621.609375 196.164062 650.277344 C 196.34375 651.460938 197.359375 652.304688 198.519531 652.304688 " fill-opacity="1" fill-rule="nonzero"/><path fill="#000000" d="M 287.398438 472.003906 C 288.007812 466.125 284.769531 460.972656 280.148438 460.484375 C 275.523438 459.996094 271.273438 464.363281 270.65625 470.230469 C 270.039062 476.105469 273.285156 481.257812 277.902344 481.742188 C 282.527344 482.230469 286.773438 477.871094 287.398438 472.003906 " fill-opacity="1" fill-rule="evenodd"/><path fill="#000000" d="M 131.691406 497.144531 C 131.699219 497.144531 131.707031 497.144531 131.714844 497.144531 C 133.03125 497.132812 134.09375 496.046875 134.070312 494.726562 C 133.695312 462.964844 147.109375 456.335938 164.09375 447.949219 C 172.4375 443.828125 181.078125 439.566406 188.894531 431.875 C 203.640625 417.390625 210.148438 402.4375 215.902344 389.242188 C 219.359375 381.308594 222.34375 374.445312 226.597656 368.933594 C 228.359375 366.636719 232.179688 362.6875 237.984375 361.972656 C 243.136719 361.347656 248.671875 363.34375 254.449219 367.929688 C 255.480469 368.746094 256.988281 368.570312 257.808594 367.539062 C 258.621094 366.507812 258.449219 365 257.410156 364.1875 C 250.601562 358.777344 243.859375 356.445312 237.40625 357.234375 C 231.824219 357.921875 226.640625 361.039062 222.816406 366.019531 C 218.199219 372.007812 214.960938 379.457031 211.527344 387.335938 C 205.953125 400.132812 199.632812 414.632812 185.550781 428.472656 C 178.273438 435.621094 169.984375 439.71875 161.976562 443.671875 C 144.960938 452.078125 128.890625 460.019531 129.296875 494.789062 C 129.320312 496.089844 130.382812 497.144531 131.691406 497.144531 " fill-opacity="1" fill-rule="nonzero"/><path fill="#000000" d="M 476.824219 774.054688 C 478.070312 774.054688 479.117188 773.089844 479.207031 771.839844 C 480.457031 754.09375 481.179688 740.203125 480.644531 730.070312 C 480.125 720.285156 469.714844 697.792969 464.121094 685.703125 C 463.335938 684.007812 462.675781 682.585938 462.191406 681.507812 C 455.445312 666.539062 450.195312 651.316406 446.359375 640.199219 C 442.777344 629.804688 440.410156 622.933594 438.355469 620.160156 C 433.804688 614.023438 421.769531 610.796875 421.257812 610.664062 C 419.984375 610.332031 418.683594 611.085938 418.34375 612.367188 C 418.011719 613.636719 418.765625 614.941406 420.046875 615.28125 C 423.074219 616.078125 431.578125 619.03125 434.519531 623 C 436.132812 625.1875 438.785156 632.863281 441.847656 641.75 C 445.714844 652.960938 451.007812 668.304688 457.839844 683.472656 C 458.328125 684.550781 459 685.996094 459.789062 687.707031 C 464.859375 698.667969 475.402344 721.453125 475.878906 730.320312 C 476.398438 740.210938 475.679688 753.933594 474.445312 771.492188 C 474.355469 772.820312 475.34375 773.957031 476.660156 774.046875 C 476.714844 774.054688 476.773438 774.054688 476.824219 774.054688 " fill-opacity="1" fill-rule="nonzero"/><path fill="#000000" d="M 547.472656 742.214844 C 547.5625 742.214844 547.644531 742.214844 547.726562 742.199219 C 549.039062 742.0625 549.988281 740.886719 549.851562 739.578125 C 549.152344 733.046875 548.421875 726.863281 547.691406 721.203125 C 546.160156 709.402344 544.039062 696.492188 541.980469 683.992188 C 539.578125 669.371094 537.3125 655.566406 535.988281 643.777344 C 534.316406 628.90625 534.027344 612.207031 533.773438 597.464844 C 533.507812 581.992188 533.296875 569.769531 531.597656 564.105469 C 528.3125 553.195312 519.238281 551.410156 508.730469 549.339844 C 506.484375 548.902344 504.136719 548.4375 501.71875 547.863281 C 480.703125 542.871094 467.148438 540.578125 456.371094 540.195312 C 452.53125 540.050781 449.359375 541.167969 446.957031 543.488281 C 442.59375 547.691406 442.527344 554.335938 442.527344 554.613281 C 442.527344 555.929688 443.589844 557 444.90625 557.007812 C 444.90625 557.007812 444.914062 557.007812 444.914062 557.007812 C 446.226562 557.007812 447.292969 555.9375 447.300781 554.628906 C 447.308594 554.5 447.40625 549.65625 450.285156 546.90625 C 451.746094 545.511719 453.644531 544.894531 456.203125 544.972656 C 466.652344 545.339844 479.929688 547.59375 500.617188 552.511719 C 503.097656 553.097656 505.507812 553.574219 507.8125 554.023438 C 518.820312 556.195312 524.683594 557.6875 527.023438 565.476562 C 528.539062 570.515625 528.757812 583.039062 529.003906 597.550781 C 529.261719 612.394531 529.546875 629.214844 531.242188 644.3125 C 532.582031 656.214844 534.855469 670.089844 537.273438 684.769531 C 539.324219 697.222656 541.441406 710.09375 542.953125 721.824219 C 543.691406 727.441406 544.414062 733.589844 545.105469 740.082031 C 545.234375 741.300781 546.265625 742.214844 547.472656 742.214844 " fill-opacity="1" fill-rule="nonzero"/><path fill="#000000" d="M 439.378906 635.121094 C 440.230469 635.121094 440.839844 635.097656 441.113281 635.085938 C 442.421875 635.03125 443.445312 633.917969 443.394531 632.597656 C 443.332031 631.289062 442.234375 630.25 440.90625 630.316406 C 435.3125 630.542969 425.414062 629.515625 422.644531 625.773438 C 416.761719 617.8125 410.851562 607.160156 411.910156 601.132812 C 412.371094 598.492188 416.097656 594.355469 419.15625 593.082031 C 423.171875 591.410156 430.574219 592.847656 438.414062 594.371094 C 446.082031 595.847656 454.765625 597.527344 462.589844 596.796875 C 463.902344 596.667969 464.867188 595.507812 464.746094 594.1875 C 464.617188 592.878906 463.441406 591.90625 462.140625 592.042969 C 454.984375 592.71875 446.667969 591.101562 439.328125 589.675781 C 430.386719 587.953125 422.667969 586.453125 417.328125 588.675781 C 413.214844 590.386719 408.011719 595.726562 407.203125 600.3125 C 405.601562 609.503906 414.78125 623.167969 418.808594 628.613281 C 423.171875 634.511719 434.800781 635.121094 439.378906 635.121094 " fill-opacity="1" fill-rule="nonzero"/><path fill="#000000" d="M 427.839844 623.664062 C 427.917969 623.664062 427.992188 623.664062 428.058594 623.65625 C 428.429688 623.625 431.765625 623.273438 434.769531 621.058594 C 435.832031 620.273438 436.058594 618.777344 435.273438 617.714844 C 434.492188 616.652344 433 616.433594 431.9375 617.214844 C 429.988281 618.65625 427.644531 618.902344 427.613281 618.910156 C 426.3125 619.039062 425.347656 620.199219 425.476562 621.511719 C 425.597656 622.746094 426.628906 623.664062 427.839844 623.664062 " fill-opacity="1" fill-rule="nonzero"/><path fill="#000000" d="M 413.207031 595.996094 C 414.3125 595.996094 415.300781 595.230469 415.542969 594.097656 C 415.558594 594.023438 417.132812 586.648438 420.484375 580.722656 C 423.789062 574.851562 426.320312 572.472656 433.347656 572.886719 C 440.703125 573.324219 448.605469 574.484375 456.242188 575.605469 C 467.1875 577.21875 478.519531 578.882812 488.265625 578.394531 C 489.585938 578.332031 490.601562 577.210938 490.542969 575.890625 C 490.464844 574.582031 489.304688 573.601562 488.03125 573.632812 C 478.730469 574.085938 468.140625 572.53125 456.933594 570.890625 C 449.191406 569.753906 441.195312 568.570312 433.625 568.125 C 423.359375 567.484375 419.570312 572.625 416.324219 578.371094 C 412.605469 584.960938 410.933594 592.796875 410.871094 593.121094 C 410.601562 594.414062 411.421875 595.679688 412.71875 595.945312 C 412.875 595.980469 413.042969 595.996094 413.207031 595.996094 " fill-opacity="1" fill-rule="nonzero"/><path fill="#000000" d="M 429.589844 571.410156 C 429.699219 571.410156 429.8125 571.410156 429.925781 571.394531 C 431.230469 571.207031 432.132812 570 431.953125 568.691406 C 431.953125 568.675781 431.492188 564.75 434.21875 561.714844 C 436.714844 558.945312 441.089844 557.59375 447.273438 557.714844 C 466.644531 558.078125 504.550781 562.484375 504.933594 562.53125 C 506.246094 562.679688 507.425781 561.746094 507.578125 560.433594 C 507.734375 559.125 506.792969 557.941406 505.492188 557.792969 C 505.105469 557.746094 466.960938 553.308594 447.363281 552.941406 C 439.695312 552.804688 434.0625 554.703125 430.605469 558.597656 C 426.433594 563.3125 427.191406 569.113281 427.230469 569.363281 C 427.394531 570.550781 428.421875 571.410156 429.589844 571.410156 " fill-opacity="1" fill-rule="nonzero"/><path fill="#000000" d="M 518.203125 1104.007812 C 529.644531 1104.007812 539.707031 1100.875 545.875 1095.238281 C 580.28125 1063.78125 599.976562 990.542969 594.605469 959.410156 C 586.53125 912.625 585.453125 888.195312 584.511719 866.636719 C 584.316406 862.195312 584.121094 857.839844 583.878906 853.386719 C 582.644531 830.902344 577.9375 819.949219 574.828125 812.703125 C 574.21875 811.296875 573.675781 810.03125 573.238281 808.847656 C 572.769531 807.613281 571.390625 806.988281 570.164062 807.445312 C 568.929688 807.90625 568.304688 809.285156 568.765625 810.519531 C 569.230469 811.761719 569.804688 813.101562 570.445312 814.578125 C 573.417969 821.523438 577.921875 832.011719 579.113281 853.652344 C 579.351562 858.082031 579.550781 862.425781 579.746094 866.847656 C 580.703125 888.550781 581.777344 913.136719 589.898438 960.222656 C 594.972656 989.636719 575.414062 1061.769531 542.652344 1091.722656 C 536.371094 1097.453125 525.082031 1100.15625 512.464844 1098.960938 C 495.753906 1097.363281 480.691406 1089.582031 472.171875 1078.148438 C 453.582031 1053.175781 440.953125 1015.078125 427.59375 974.738281 C 417.152344 943.246094 406.367188 910.679688 391.589844 879.78125 C 391.027344 878.59375 389.59375 878.085938 388.414062 878.660156 C 387.222656 879.226562 386.71875 880.65625 387.289062 881.847656 C 401.933594 912.464844 412.671875 944.878906 423.058594 976.238281 C 436.546875 1016.945312 449.289062 1055.40625 468.34375 1080.996094 C 477.648438 1093.5 493.976562 1101.988281 512.011719 1103.714844 C 514.109375 1103.910156 516.179688 1104.007812 518.203125 1104.007812 " fill-opacity="1" fill-rule="nonzero"/><path fill="#000000" d="M 449.359375 1014.949219 C 449.507812 1014.949219 449.667969 1014.941406 449.824219 1014.910156 C 451.121094 1014.648438 451.957031 1013.398438 451.699219 1012.101562 C 444.878906 977.554688 448.550781 960.140625 452.808594 939.984375 C 454.96875 929.761719 457.199219 919.191406 458.207031 905.582031 C 459.480469 888.382812 458.902344 878.019531 458.394531 868.867188 C 457.785156 857.953125 457.3125 849.335938 460.511719 833.417969 C 460.777344 832.125 459.941406 830.867188 458.644531 830.609375 C 457.355469 830.339844 456.089844 831.183594 455.835938 832.46875 C 452.507812 848.988281 453.003906 857.878906 453.628906 869.125 C 454.132812 878.132812 454.699219 888.339844 453.449219 905.234375 C 452.46875 918.523438 450.269531 928.933594 448.144531 938.996094 C 443.957031 958.808594 440.003906 977.519531 447.023438 1013.027344 C 447.242188 1014.164062 448.242188 1014.949219 449.359375 1014.949219 " fill-opacity="1" fill-rule="nonzero"/><path fill="#000000" d="M 482.179688 775.769531 C 493.238281 775.769531 504.558594 773.925781 511.449219 771.117188 C 533.667969 762.054688 551.382812 741.300781 561.964844 728.902344 L 563.492188 727.125 C 567.964844 721.90625 569.292969 717.429688 567.429688 713.832031 C 564.921875 708.980469 557.25 707.113281 544.617188 708.257812 C 543.308594 708.382812 542.34375 709.542969 542.457031 710.855469 C 542.578125 712.171875 543.730469 713.128906 545.054688 713.015625 C 556.730469 711.941406 562.074219 713.859375 563.191406 716.023438 C 564.035156 717.65625 562.820312 720.570312 559.863281 724.023438 L 558.332031 725.808594 C 548.039062 737.875 530.789062 758.070312 509.648438 766.695312 C 494.691406 772.796875 460.640625 773.15625 455.316406 763.304688 C 453.457031 759.847656 454.011719 751.523438 478.710938 734.507812 C 479.792969 733.753906 480.066406 732.269531 479.320312 731.1875 C 478.566406 730.101562 477.089844 729.824219 475.996094 730.574219 C 454.828125 745.160156 446.457031 756.941406 451.121094 765.570312 C 455.097656 772.933594 468.4375 775.769531 482.179688 775.769531 " fill-opacity="1" fill-rule="nonzero"/><path fill="#000000" d="M 496.730469 840.363281 C 504.277344 840.363281 512.21875 839.59375 520.183594 837.757812 C 547.34375 831.484375 582.910156 804.402344 581.980469 796.3125 C 579 770.511719 571.378906 724.421875 568.199219 715.617188 C 567.753906 714.371094 566.390625 713.726562 565.148438 714.175781 C 563.90625 714.621094 563.265625 715.992188 563.710938 717.226562 C 566.730469 725.617188 574.351562 771.855469 577.238281 796.863281 C 576.402344 801.074219 547.3125 826.585938 519.109375 833.101562 C 485.035156 840.988281 452.425781 827.957031 451.25 823.21875 C 451.617188 821.101562 452.003906 818.796875 452.386719 816.523438 C 453.929688 807.304688 455.382812 798.585938 455.550781 792.847656 C 455.777344 784.984375 455.285156 777.292969 454.902344 771.109375 C 454.585938 766.199219 454.3125 761.957031 454.570312 759.816406 C 454.730469 758.515625 453.792969 757.324219 452.484375 757.171875 C 451.152344 756.992188 449.992188 757.949219 449.832031 759.253906 C 449.523438 761.820312 449.796875 766.054688 450.132812 771.410156 C 450.519531 777.496094 451 785.066406 450.78125 792.710938 C 450.625 798.128906 449.191406 806.683594 447.679688 815.738281 C 447.292969 818.023438 446.910156 820.335938 446.542969 822.632812 C 446.253906 824.363281 447.0625 826.136719 448.921875 827.882812 C 454.839844 833.417969 474.015625 840.355469 496.730469 840.363281 " fill-opacity="1" fill-rule="nonzero"/><path fill="#000000" d="M 380.792969 847.375 C 381.949219 847.375 382.96875 846.527344 383.148438 845.34375 C 389.082031 805.433594 396.960938 763.832031 414.230469 729.875 C 422.660156 713.28125 440.992188 704.671875 451.941406 699.519531 L 454.554688 698.28125 C 455.746094 697.71875 456.25 696.285156 455.675781 695.097656 C 455.105469 693.914062 453.683594 693.417969 452.492188 693.980469 L 449.910156 695.203125 C 439.160156 700.257812 419.148438 709.664062 409.96875 727.707031 C 392.398438 762.273438 384.429688 804.335938 378.425781 844.636719 C 378.230469 845.945312 379.132812 847.164062 380.4375 847.355469 C 380.558594 847.371094 380.671875 847.375 380.792969 847.375 " fill-opacity="1" fill-rule="nonzero"/><path fill="#000000" d="M 455.875 676.980469 C 456.761719 676.980469 457.613281 676.484375 458.027344 675.640625 C 458.601562 674.449219 458.109375 673.027344 456.929688 672.445312 C 444.441406 666.359375 430.003906 660.777344 414.722656 654.878906 C 385.980469 643.785156 356.269531 632.3125 341.046875 617.382812 C 340.105469 616.464844 338.597656 616.476562 337.671875 617.414062 C 336.753906 618.355469 336.769531 619.867188 337.710938 620.785156 C 353.625 636.410156 383.8125 648.0625 413.003906 659.332031 C 428.1875 665.199219 442.535156 670.734375 454.835938 676.738281 C 455.164062 676.898438 455.527344 676.980469 455.875 676.980469 " fill-opacity="1" fill-rule="nonzero"/><path fill="#000000" d="M 206.113281 470.773438 C 206.933594 470.773438 207.730469 470.34375 208.183594 469.578125 C 208.832031 468.429688 208.445312 466.976562 207.308594 466.324219 C 206.789062 466.019531 194.648438 459.113281 184.007812 462.757812 C 182.761719 463.1875 182.101562 464.542969 182.523438 465.796875 C 182.945312 467.039062 184.308594 467.707031 185.558594 467.277344 C 194.128906 464.339844 204.816406 470.398438 204.921875 470.457031 C 205.296875 470.667969 205.703125 470.773438 206.113281 470.773438 " fill-opacity="1" fill-rule="nonzero"/><path fill="#000000" d="M 294.191406 574.582031 C 294.191406 574.582031 262.824219 599.339844 234.089844 602.265625 C 205.375 605.195312 185.664062 582.054688 185.664062 582.054688 L 191.539062 606.242188 C 191.539062 606.242188 217.347656 627.613281 243.316406 615.28125 C 269.269531 602.941406 294.191406 574.582031 294.191406 574.582031 " fill-opacity="1" fill-rule="evenodd"/><path fill="#000000" d="M 108.449219 437.367188 C 108.953125 437.367188 109.464844 437.203125 109.894531 436.878906 C 110.941406 436.078125 111.144531 434.578125 110.347656 433.53125 C 98.296875 417.765625 82.253906 407.785156 62.65625 403.863281 C 61.371094 403.597656 60.113281 404.441406 59.847656 405.738281 C 59.59375 407.027344 60.429688 408.285156 61.714844 408.539062 C 80.152344 412.230469 95.230469 421.609375 106.550781 436.425781 C 107.019531 437.042969 107.734375 437.367188 108.449219 437.367188 " fill-opacity="1" fill-rule="nonzero"/><g clip-path="url(#9cdc7ed6de)"><path fill="#000000" d="M 284.152344 1237.667969 C 284.160156 1237.667969 284.167969 1237.667969 284.183594 1237.667969 C 285.5 1237.644531 286.554688 1236.558594 286.542969 1235.242188 C 285.621094 1162.835938 279.507812 1093.023438 274.105469 1031.421875 C 267.507812 956.238281 261.824219 891.308594 266.808594 841.351562 C 273.285156 776.570312 300.261719 689.597656 314.753906 642.867188 C 319.355469 628.035156 322.683594 617.316406 323.785156 612.367188 C 325.261719 605.765625 319.558594 596.824219 313.082031 587.460938 C 311.75 585.535156 310.085938 583.132812 309.859375 582.46875 C 309.429688 581.226562 308.074219 580.5625 306.832031 580.984375 C 305.582031 581.414062 304.917969 582.769531 305.339844 584.011719 C 305.761719 585.234375 306.9375 586.972656 309.160156 590.183594 C 313.042969 595.785156 320.265625 606.21875 319.128906 611.324219 C 318.066406 616.085938 314.769531 626.730469 310.199219 641.457031 C 295.652344 688.347656 268.585938 775.613281 262.0625 840.875 C 257.03125 891.285156 262.742188 956.417969 269.355469 1031.835938 C 274.738281 1093.355469 280.847656 1163.078125 281.765625 1235.300781 C 281.789062 1236.613281 282.851562 1237.667969 284.152344 1237.667969 " fill-opacity="1" fill-rule="nonzero"/></g><path fill="#000000" d="M 288.980469 724.4375 C 289.90625 724.4375 290.789062 723.894531 291.171875 722.988281 C 305.957031 688.605469 340.40625 682.027344 353.375 679.550781 C 357.96875 678.675781 360.070312 678.277344 359.769531 675.699219 C 359.402344 672.566406 357.027344 665.78125 353.445312 655.503906 C 349.761719 644.972656 345.1875 631.867188 340.632812 616.675781 C 336.363281 602.453125 315.523438 573.390625 308.949219 569.285156 C 307.824219 568.585938 306.347656 568.925781 305.65625 570.046875 C 304.957031 571.160156 305.292969 572.636719 306.417969 573.332031 C 311.621094 576.585938 331.980469 604.457031 336.054688 618.046875 C 340.648438 633.335938 345.4375 647.0625 348.933594 657.070312 C 351.589844 664.6875 353.789062 670.984375 354.65625 674.433594 C 354.015625 674.570312 353.242188 674.722656 352.480469 674.863281 C 340.136719 677.222656 302.574219 684.386719 286.78125 721.105469 C 286.269531 722.3125 286.828125 723.722656 288.039062 724.242188 C 288.339844 724.375 288.664062 724.4375 288.980469 724.4375 " fill-opacity="1" fill-rule="nonzero"/><path fill="#000000" d="M 459.714844 1221.472656 C 459.863281 1221.472656 460.023438 1221.457031 460.179688 1221.425781 C 461.46875 1221.167969 462.3125 1219.910156 462.058594 1218.617188 C 452.304688 1169.203125 441.609375 1132.210938 434.535156 1107.742188 C 432.617188 1101.113281 430.996094 1095.488281 429.761719 1090.898438 C 426.289062 1077.972656 427.5 1069.832031 428.949219 1064.1875 C 435.589844 1038.203125 434.03125 1006.234375 432.511719 989.488281 C 432.390625 988.167969 431.253906 987.21875 429.917969 987.324219 C 428.609375 987.445312 427.636719 988.605469 427.757812 989.925781 C 429.25 1006.355469 430.792969 1037.703125 424.324219 1063.007812 C 421.964844 1072.234375 422.222656 1081.214844 425.152344 1092.144531 C 426.394531 1096.753906 428.027344 1102.402344 429.949219 1109.0625 C 437 1133.460938 447.664062 1170.332031 457.371094 1219.550781 C 457.597656 1220.679688 458.601562 1221.472656 459.714844 1221.472656 " fill-opacity="1" fill-rule="nonzero"/><path fill="#000000" d="M 337.726562 1097 C 361.992188 1097 395.664062 1073.199219 409.796875 1046.066406 C 410.40625 1044.898438 409.953125 1043.460938 408.777344 1042.839844 C 407.609375 1042.238281 406.171875 1042.699219 405.5625 1043.867188 C 392.148438 1069.628906 360.449219 1092.226562 337.726562 1092.226562 C 336.40625 1092.226562 335.339844 1093.296875 335.339844 1094.613281 C 335.339844 1095.933594 336.40625 1097 337.726562 1097 " fill-opacity="1" fill-rule="nonzero"/><path fill="#000000" d="M 48.582031 1229.296875 C 49.800781 1229.296875 50.839844 1228.371094 50.953125 1227.128906 C 58.671875 1146.203125 73.894531 1022.375 102.636719 892.0625 C 133.445312 752.269531 176.171875 667.679688 194.414062 631.558594 L 196.523438 627.386719 C 197.117188 626.203125 196.644531 624.773438 195.460938 624.175781 C 194.285156 623.582031 192.855469 624.0625 192.261719 625.238281 L 190.160156 629.40625 C 171.835938 665.6875 128.921875 750.648438 97.972656 891.035156 C 69.179688 1021.585938 53.9375 1145.617188 46.203125 1226.683594 C 46.082031 1227.988281 47.039062 1229.160156 48.355469 1229.289062 C 48.421875 1229.289062 48.503906 1229.296875 48.582031 1229.296875 " fill-opacity="1" fill-rule="nonzero"/><path fill="#000000" d="M 129.3125 669.808594 L 129.289062 669.808594 Z M 157.863281 703.074219 C 158.300781 703.074219 158.722656 702.953125 159.113281 702.71875 C 160.238281 702.035156 160.589844 700.566406 159.90625 699.4375 C 151.492188 685.6875 140.835938 677.945312 134.464844 673.320312 C 132.476562 671.875 130.261719 670.261719 129.523438 669.394531 C 132.703125 663.796875 163.144531 627.054688 191.410156 599.710938 C 192.351562 598.792969 192.375 597.285156 191.460938 596.335938 C 190.542969 595.386719 189.03125 595.363281 188.089844 596.277344 C 159.792969 623.664062 126.398438 663.445312 124.777344 668.304688 C 123.738281 671.429688 126.722656 673.589844 131.65625 677.175781 C 138.132812 681.882812 147.921875 688.988281 155.832031 701.929688 C 156.28125 702.667969 157.066406 703.074219 157.863281 703.074219 " fill-opacity="1" fill-rule="nonzero"/><path fill="#000000" d="M 123.398438 712.894531 C 125.230469 712.894531 126.425781 711.042969 128.753906 707.472656 C 132.195312 702.175781 137.957031 693.320312 146.734375 688.324219 C 147.878906 687.667969 148.277344 686.207031 147.628906 685.0625 C 146.980469 683.917969 145.519531 683.519531 144.367188 684.175781 C 134.914062 689.558594 128.84375 698.578125 125.132812 704.285156 C 125.742188 695.195312 128.332031 677.597656 129.484375 670.308594 C 129.6875 669.003906 128.808594 667.777344 127.503906 667.574219 C 126.214844 667.355469 124.980469 668.25 124.769531 669.554688 C 124.242188 672.898438 119.605469 702.410156 120.3125 709.355469 C 120.5 711.308594 121.296875 712.472656 122.652344 712.796875 C 122.917969 712.867188 123.167969 712.894531 123.398438 712.894531 " fill-opacity="1" fill-rule="nonzero"/><path fill="#000000" d="M 354.964844 714.101562 C 355.664062 714.101562 356.457031 713.761719 356.917969 713.25 C 357.578125 712.503906 358.820312 711.125 359.777344 676.722656 C 359.816406 675.40625 358.785156 674.304688 357.464844 674.269531 C 356.09375 674.15625 355.046875 675.269531 355.011719 676.589844 C 354.6875 688.023438 354.121094 700.453125 353.558594 706.71875 C 349.671875 701.5 342.863281 690.921875 339.886719 686.304688 C 338.042969 683.445312 337.136719 682.050781 336.808594 681.589844 C 336.007812 680.535156 334.515625 680.324219 333.460938 681.117188 C 332.410156 681.90625 332.191406 683.398438 332.980469 684.453125 C 333.238281 684.792969 334.515625 686.78125 335.871094 688.890625 C 351.273438 712.8125 352.886719 713.945312 354.800781 714.09375 C 354.851562 714.09375 354.90625 714.101562 354.964844 714.101562 " fill-opacity="1" fill-rule="nonzero"/><path fill="#000000" d="M 76.386719 1232.6875 C 77.621094 1232.6875 78.667969 1231.730469 78.769531 1230.472656 C 80.929688 1201.3125 84.257812 1169.019531 87.480469 1137.785156 C 92.28125 1091.292969 96.421875 1051.144531 95.179688 1035.46875 C 93.507812 1014.449219 92.761719 994.65625 92.097656 977.179688 C 91.714844 966.800781 91.34375 957 90.832031 948.425781 C 90.75 947.109375 89.582031 946.144531 88.300781 946.183594 C 86.984375 946.273438 85.984375 947.394531 86.066406 948.714844 C 86.578125 957.234375 86.945312 967.011719 87.332031 977.367188 C 87.992188 994.882812 88.738281 1014.730469 90.417969 1035.84375 C 91.632812 1051.089844 87.503906 1091.035156 82.738281 1137.300781 C 79.511719 1168.5625 76.175781 1200.890625 74.007812 1230.125 C 73.902344 1231.4375 74.894531 1232.582031 76.214844 1232.679688 C 76.265625 1232.679688 76.328125 1232.6875 76.386719 1232.6875 " fill-opacity="1" fill-rule="nonzero"/><path fill="#000000" d="M 205.066406 770.378906 C 205.269531 770.378906 205.472656 770.371094 205.667969 770.355469 C 227.621094 768.707031 278.121094 725.300781 303.578125 678.871094 C 304.210938 677.71875 303.789062 676.265625 302.636719 675.632812 C 301.476562 675 300.03125 675.421875 299.398438 676.574219 C 275.257812 720.601562 225.933594 764.042969 205.3125 765.59375 C 203.292969 765.730469 199.234375 763.960938 194.1875 758.46875 C 183.402344 746.753906 166.933594 715.910156 173.53125 674.652344 C 173.742188 673.351562 172.859375 672.121094 171.554688 671.917969 C 170.230469 671.699219 169.027344 672.597656 168.824219 673.890625 C 162.796875 711.578125 175.449219 745.152344 190.671875 761.699219 C 195.847656 767.320312 200.914062 770.378906 205.066406 770.378906 " fill-opacity="1" fill-rule="nonzero"/><path fill="#000000" d="M 56.503906 1155.613281 C 57.800781 1155.613281 58.863281 1154.589844 58.882812 1153.285156 C 59.726562 1121.59375 58.671875 1080.054688 57.550781 1036.070312 C 55.417969 952.164062 53.003906 857.070312 62.136719 789.40625 C 62.320312 788.101562 61.398438 786.90625 60.089844 786.722656 C 58.785156 786.535156 57.582031 787.460938 57.40625 788.773438 C 48.226562 856.816406 50.652344 952.109375 52.785156 1036.191406 C 53.898438 1080.105469 54.953125 1121.59375 54.125 1153.164062 C 54.078125 1154.484375 55.125 1155.574219 56.445312 1155.613281 C 56.464844 1155.613281 56.480469 1155.613281 56.503906 1155.613281 " fill-opacity="1" fill-rule="nonzero"/><g clip-path="url(#f6a6a7c004)"><path fill="#000000" d="M 2.539062 1222.195312 C 3.753906 1222.195312 4.800781 1221.261719 4.914062 1220.007812 C 8.851562 1177.105469 12.882812 1140.011719 16.773438 1104.136719 C 21.46875 1060.859375 26.324219 1016.125 30.996094 961.375 C 33.367188 933.609375 35.160156 905.664062 36.882812 878.644531 C 41.175781 811.574219 44.875 753.648438 55.40625 731.382812 C 66.84375 707.179688 93.273438 688 116.597656 671.066406 C 129.046875 662.035156 140.804688 653.507812 148.34375 645.417969 C 149.25 644.460938 149.195312 642.949219 148.230469 642.050781 C 147.265625 641.15625 145.753906 641.199219 144.855469 642.164062 C 137.625 649.914062 126.050781 658.316406 113.796875 667.203125 C 90.011719 684.46875 63.050781 704.039062 51.089844 729.339844 C 40.167969 752.429688 36.449219 810.777344 32.125 878.335938 C 30.390625 905.332031 28.613281 933.25 26.242188 960.96875 C 21.574219 1015.664062 16.722656 1060.371094 12.03125 1103.621094 C 8.128906 1139.515625 4.105469 1176.628906 0.160156 1219.582031 C 0.0390625 1220.890625 1.003906 1222.058594 2.316406 1222.179688 C 2.390625 1222.179688 2.464844 1222.195312 2.539062 1222.195312 " fill-opacity="1" fill-rule="nonzero"/></g><path fill="#000000" d="M 82.863281 695.414062 C 84.183594 695.414062 85.253906 694.34375 85.253906 693.023438 C 85.253906 691.707031 84.183594 690.636719 82.863281 690.636719 C 80.769531 690.636719 78.917969 689.664062 77.1875 687.667969 C 72.175781 681.832031 70.371094 669.675781 71.566406 661.75 C 71.761719 660.445312 70.867188 659.234375 69.5625 659.03125 C 68.261719 658.835938 67.046875 659.730469 66.851562 661.035156 C 65.46875 670.195312 67.597656 683.828125 73.570312 690.78125 C 76.183594 693.808594 79.398438 695.414062 82.863281 695.414062 " fill-opacity="1" fill-rule="nonzero"/><path fill="#efefef" d="M 27.980469 382.589844 C 29.789062 377.632812 32.808594 360.171875 32.808594 360.171875 C 32.808594 360.171875 35.792969 379.035156 36.847656 382.996094 C 37.789062 386.558594 50.953125 388.59375 50.953125 388.59375 C 50.953125 388.59375 38.128906 390.542969 36.785156 394.273438 C 35.429688 398.007812 32.019531 419.085938 32.019531 419.085938 C 32.019531 419.085938 28.613281 398.65625 27.671875 394.347656 C 26.792969 390.304688 13.726562 388.390625 13.726562 388.390625 C 13.726562 388.390625 26.574219 386.4375 27.980469 382.589844 " fill-opacity="1" fill-rule="evenodd"/></svg>