<svg xmlns="http://www.w3.org/2000/svg" xmlns:xlink="http://www.w3.org/1999/xlink" width="1080" zoomAndPan="magnify" viewBox="0 0 810 809.999993" height="1080" preserveAspectRatio="xMidYMid meet" version="1.0"><defs><clipPath id="866e690569"><path d="M 63 335 L 747 335 L 747 676.761719 L 63 676.761719 Z M 63 335 " clip-rule="nonzero"/></clipPath><clipPath id="ce538f248d"><path d="M 33.503906 133.011719 L 776.753906 133.011719 L 776.753906 484 L 33.503906 484 Z M 33.503906 133.011719 " clip-rule="nonzero"/></clipPath></defs><g clip-path="url(#866e690569)"><path fill="#008c58" d="M 404.996094 676.761719 L 63.355469 676.761719 C 63.355469 611.308594 81.710938 550.054688 113.773438 498.09375 C 127.484375 502.292969 142.078125 504.503906 157.335938 504.503906 C 240.917969 504.503906 308.804688 436.621094 308.804688 353.035156 L 308.804688 349.054688 C 339.320312 340.207031 371.605469 335.34375 404.996094 335.34375 C 438.605469 335.34375 470.890625 340.207031 501.625 349.273438 C 501.40625 352.8125 501.183594 356.128906 501.183594 359.667969 C 501.183594 443.253906 569.070312 511.136719 652.65625 511.136719 C 669.019531 511.136719 684.71875 508.484375 699.535156 503.839844 C 729.386719 554.699219 746.632812 613.742188 746.632812 676.980469 L 404.996094 676.980469 Z M 404.996094 408.535156 C 461.601562 408.535156 507.375 454.308594 507.375 510.917969 C 507.375 567.523438 461.601562 613.296875 404.996094 613.296875 C 348.386719 613.296875 302.613281 567.523438 302.613281 510.917969 C 302.613281 454.308594 348.386719 408.535156 404.996094 408.535156 Z M 404.996094 408.535156 " fill-opacity="1" fill-rule="evenodd"/></g><g clip-path="url(#ce538f248d)"><path fill="#008c58" d="M 267.453125 296.425781 C 276.300781 313.453125 281.164062 332.691406 281.164062 353.253906 C 281.164062 421.582031 225.660156 477.085938 157.335938 477.085938 C 89.007812 477.085938 33.503906 421.582031 33.503906 353.253906 C 33.503906 331.363281 39.253906 311.019531 48.984375 293.109375 C 92.988281 200.679688 235.613281 133.015625 404.996094 133.015625 C 595.382812 133.015625 752.160156 218.589844 772.503906 328.710938 C 775.15625 338.660156 776.484375 349.054688 776.484375 359.667969 C 776.484375 427.996094 720.980469 483.496094 652.65625 483.496094 C 584.328125 483.496094 528.824219 427.996094 528.824219 359.667969 C 528.824219 337.335938 534.796875 316.546875 544.964844 298.636719 C 515.113281 271.4375 463.59375 253.527344 404.996094 253.527344 C 347.945312 253.527344 297.527344 270.554688 267.453125 296.425781 Z M 267.453125 296.425781 " fill-opacity="1" fill-rule="evenodd"/></g></svg>