<svg xmlns="http://www.w3.org/2000/svg" xmlns:xlink="http://www.w3.org/1999/xlink" width="1080" zoomAndPan="magnify" viewBox="0 0 810 809.999993" height="1080" preserveAspectRatio="xMidYMid meet" version="1.0"><defs><clipPath id="d04d540c6f"><path d="M 15.148438 105.167969 L 795 105.167969 L 795 401 L 15.148438 401 Z M 15.148438 105.167969 " clip-rule="nonzero"/></clipPath><clipPath id="e0e014139d"><path d="M 15.148438 236 L 795 236 L 795 705 L 15.148438 705 Z M 15.148438 236 " clip-rule="nonzero"/></clipPath></defs><g clip-path="url(#d04d540c6f)"><path fill="#008c58" d="M 404.996094 400.019531 L 794.773438 166.152344 L 794.773438 165.132812 C 794.773438 163.171875 794.679688 161.210938 794.484375 159.257812 C 794.292969 157.300781 794.003906 155.363281 793.621094 153.433594 C 793.238281 151.507812 792.761719 149.605469 792.191406 147.726562 C 791.621094 145.847656 790.960938 144 790.210938 142.1875 C 789.457031 140.371094 788.621094 138.597656 787.695312 136.867188 C 786.769531 135.132812 785.757812 133.453125 784.667969 131.820312 C 783.578125 130.1875 782.410156 128.609375 781.164062 127.09375 C 779.917969 125.574219 778.597656 124.121094 777.210938 122.730469 C 775.820312 121.34375 774.367188 120.027344 772.851562 118.78125 C 771.332031 117.535156 769.757812 116.367188 768.125 115.273438 C 766.492188 114.183594 764.808594 113.175781 763.078125 112.25 C 761.34375 111.324219 759.570312 110.484375 757.757812 109.734375 C 755.941406 108.980469 754.09375 108.320312 752.214844 107.75 C 750.335938 107.179688 748.433594 106.703125 746.507812 106.320312 C 744.582031 105.9375 742.640625 105.648438 740.6875 105.457031 C 738.730469 105.265625 736.773438 105.167969 734.808594 105.167969 L 75.183594 105.167969 C 73.21875 105.167969 71.257812 105.265625 69.304688 105.457031 C 67.351562 105.648438 65.410156 105.9375 63.484375 106.320312 C 61.558594 106.703125 59.65625 107.179688 57.773438 107.75 C 55.894531 108.320312 54.046875 108.980469 52.234375 109.734375 C 50.417969 110.484375 48.648438 111.324219 46.914062 112.25 C 45.183594 113.175781 43.5 114.183594 41.867188 115.273438 C 40.234375 116.367188 38.660156 117.535156 37.140625 118.78125 C 35.621094 120.027344 34.167969 121.34375 32.78125 122.730469 C 31.390625 124.121094 30.074219 125.574219 28.828125 127.09375 C 27.582031 128.609375 26.414062 130.1875 25.324219 131.820312 C 24.230469 133.453125 23.222656 135.132812 22.296875 136.867188 C 21.371094 138.597656 20.53125 140.371094 19.78125 142.1875 C 19.03125 144 18.367188 145.847656 17.796875 147.726562 C 17.226562 149.605469 16.75 151.507812 16.367188 153.433594 C 15.984375 155.363281 15.699219 157.300781 15.503906 159.257812 C 15.3125 161.210938 15.214844 163.171875 15.214844 165.132812 L 15.214844 166.152344 Z M 404.996094 400.019531 " fill-opacity="1" fill-rule="nonzero"/></g><g clip-path="url(#e0e014139d)"><path fill="#008c58" d="M 420.4375 460.675781 C 419.277344 461.375 418.074219 461.988281 416.828125 462.523438 C 415.585938 463.058594 414.3125 463.507812 413.007812 463.867188 C 411.703125 464.230469 410.378906 464.503906 409.039062 464.683594 C 407.695312 464.867188 406.347656 464.957031 404.996094 464.957031 C 403.640625 464.957031 402.292969 464.867188 400.953125 464.683594 C 399.609375 464.503906 398.289062 464.230469 396.984375 463.867188 C 395.679688 463.507812 394.40625 463.058594 393.160156 462.523438 C 391.917969 461.988281 390.714844 461.375 389.554688 460.675781 L 15.214844 236.074219 L 15.214844 644.863281 C 15.214844 646.828125 15.3125 648.785156 15.503906 650.738281 C 15.699219 652.695312 15.984375 654.636719 16.367188 656.5625 C 16.75 658.488281 17.226562 660.390625 17.796875 662.269531 C 18.367188 664.148438 19.03125 665.996094 19.78125 667.808594 C 20.53125 669.625 21.371094 671.398438 22.296875 673.128906 C 23.222656 674.863281 24.230469 676.542969 25.324219 678.175781 C 26.414062 679.808594 27.582031 681.386719 28.828125 682.902344 C 30.074219 684.421875 31.390625 685.875 32.78125 687.265625 C 34.167969 688.652344 35.621094 689.96875 37.140625 691.214844 C 38.660156 692.460938 40.234375 693.632812 41.867188 694.722656 C 43.5 695.8125 45.183594 696.820312 46.914062 697.746094 C 48.648438 698.671875 50.417969 699.511719 52.234375 700.261719 C 54.046875 701.015625 55.894531 701.675781 57.773438 702.246094 C 59.65625 702.816406 61.558594 703.292969 63.484375 703.675781 C 65.410156 704.058594 67.351562 704.347656 69.304688 704.539062 C 71.257812 704.730469 73.21875 704.828125 75.183594 704.828125 L 734.808594 704.828125 C 736.773438 704.828125 738.730469 704.730469 740.6875 704.539062 C 742.640625 704.347656 744.582031 704.058594 746.507812 703.675781 C 748.433594 703.292969 750.335938 702.816406 752.214844 702.246094 C 754.09375 701.675781 755.941406 701.015625 757.757812 700.261719 C 759.570312 699.511719 761.34375 698.671875 763.074219 697.746094 C 764.808594 696.820312 766.492188 695.8125 768.125 694.722656 C 769.757812 693.632812 771.332031 692.460938 772.851562 691.214844 C 774.367188 689.96875 775.820312 688.652344 777.210938 687.265625 C 778.597656 685.875 779.917969 684.421875 781.164062 682.902344 C 782.410156 681.386719 783.578125 679.808594 784.667969 678.175781 C 785.757812 676.542969 786.769531 674.863281 787.695312 673.128906 C 788.621094 671.398438 789.457031 669.625 790.210938 667.808594 C 790.960938 665.996094 791.621094 664.148438 792.191406 662.269531 C 792.761719 660.390625 793.238281 658.488281 793.621094 656.5625 C 794.003906 654.636719 794.292969 652.695312 794.484375 650.738281 C 794.679688 648.785156 794.773438 646.828125 794.773438 644.863281 L 794.773438 236.074219 Z M 420.4375 460.675781 " fill-opacity="1" fill-rule="nonzero"/></g></svg>