<svg xmlns="http://www.w3.org/2000/svg" xmlns:xlink="http://www.w3.org/1999/xlink" width="1080" zoomAndPan="magnify" viewBox="0 0 810 809.999993" height="1080" preserveAspectRatio="xMidYMid meet" version="1.0"><defs><clipPath id="13e04ba3f8"><path d="M 151.046875 42.210938 L 658.796875 42.210938 L 658.796875 767.460938 L 151.046875 767.460938 Z M 151.046875 42.210938 " clip-rule="nonzero"/></clipPath></defs><g clip-path="url(#13e04ba3f8)"><path fill="#008c58" d="M 404.996094 42.210938 C 264.78125 42.210938 151.046875 155.945312 151.046875 296.160156 C 151.046875 486.625 404.996094 767.785156 404.996094 767.785156 C 404.996094 767.785156 658.949219 486.625 658.949219 296.160156 C 658.949219 155.945312 545.214844 42.210938 404.996094 42.210938 Z M 404.996094 386.859375 C 354.933594 386.859375 314.300781 346.226562 314.300781 296.160156 C 314.300781 246.097656 354.933594 205.464844 404.996094 205.464844 C 455.0625 205.464844 495.695312 246.097656 495.695312 296.160156 C 495.695312 346.226562 455.0625 386.859375 404.996094 386.859375 Z M 404.996094 386.859375 " fill-opacity="1" fill-rule="nonzero"/></g></svg>